<svg data-v-423bf9ae="" xmlns="http://www.w3.org/2000/svg" viewBox="0 0 252 90" class="iconLeft"><!----><!----><!----><g data-v-423bf9ae="" id="ea7bece7-89c0-4a2b-86b7-0406b687c682" fill="white" transform="matrix(4.295565073708562,0,0,4.295565073708562,119.21324976791594,12.972042782926742)"><path d="M1.52 0.91L1.52 0.91Q0.81 2.82 0.24 5.84L0.24 5.84L0.24 5.84Q-0.67 10.69-0.70 10.86L-0.70 10.86L-0.70 10.86Q-0.76 11.10-0.12 10.99L-0.12 10.99L-0.12 10.99Q0.18 10.93 0.44 10.81L0.44 10.81L0.44 10.81Q0.72 10.68 0.74 10.60L0.74 10.60L0.74 10.60Q3.02 0.48 2.96 0.65L2.96 0.65L2.96 0.65Q3.06 0.39 2.38 0.51L2.38 0.51L2.38 0.51Q1.61 0.65 1.52 0.91L1.52 0.91ZM4.05 9.01L4.05 9.01Q3.60 9.63 3.47 9.78L3.47 9.78L3.47 9.78Q3.43 9.69 3.40 9.60L3.40 9.60L3.40 9.60Q3.18 8.99 3.33 7.95L3.33 7.95L3.33 7.95Q3.45 7.14 3.85 6.16L3.85 6.16L3.85 6.16Q4.00 5.80 4.20 5.44L4.20 5.44L4.20 5.44Q4.33 5.22 4.50 5.04L4.50 5.04L4.50 5.04Q4.66 4.88 4.90 4.70L4.90 4.70L4.90 4.70Q4.91 4.69 4.92 4.68L4.92 4.68L4.92 4.68Q4.93 4.68 4.96 4.66L4.96 4.66L4.96 4.66Q5.00 4.63 5.07 4.58L5.07 4.58L5.07 4.58Q5.07 4.58 5.08 4.57L5.08 4.57L5.08 4.57Q5.28 4.74 5.25 5.37L5.25 5.37L5.25 5.37Q5.24 5.48 5.67 5.44L5.67 5.44L5.67 5.44Q5.56 5.98 5.34 6.88L5.34 6.88L5.34 6.88Q4.97 7.77 4.05 9.01L4.05 9.01ZM7.17 4.85L7.17 4.85Q7.17 4.72 6.71 4.77L6.71 4.77L6.71 4.77Q6.69 4.17 6.32 4.01L6.32 4.01L6.32 4.01Q5.74 3.75 4.71 4.17L4.71 4.17L4.71 4.17Q3.29 4.74 2.70 5.81L2.70 5.81L2.70 5.81Q1.76 7.56 1.82 9.26L1.82 9.26L1.82 9.26Q1.85 10.25 2.33 10.56L2.33 10.56L2.33 10.56Q2.56 10.71 3.16 10.63L3.16 10.63L3.16 10.63Q3.72 10.55 4.19 10.22L4.19 10.22L4.19 10.22Q4.46 10.04 4.73 9.75L4.73 9.75L4.73 9.75Q4.65 10.31 4.61 10.81L4.61 10.81L4.61 10.81Q4.61 10.88 4.83 10.90L4.83 10.90L4.83 10.90Q5.04 10.90 5.33 10.85L5.33 10.85L5.33 10.85Q6.05 10.71 6.07 10.42L6.07 10.42L6.07 10.42Q6.15 9.17 6.77 6.64L6.77 6.64L6.77 6.64Q7.14 5.73 7.17 4.85L7.17 4.85ZM12.07 4.50L12.07 4.50Q12.00 4.33 11.47 4.44L11.47 4.44L11.47 4.44Q10.27 4.66 9.45 5.45L9.45 5.45L9.45 5.45Q9.26 5.63 9.09 5.84L9.09 5.84L9.09 5.84Q9.32 4.81 9.44 4.05L9.44 4.05L9.44 4.05Q9.45 3.92 9.07 3.96L9.07 3.96L9.07 3.96Q8.82 3.98 8.65 4.03L8.65 4.03L8.65 4.03Q8.01 4.20 7.98 4.44L7.98 4.44L7.98 4.44Q7.85 5.31 7.29 7.64L7.29 7.64L7.29 7.64Q6.80 9.64 6.71 10.86L6.71 10.86L6.71 10.86Q6.70 11.04 7.39 10.89L7.39 10.89L7.39 10.89Q8.09 10.75 8.16 10.53L8.16 10.53L8.16 10.53Q9.02 8.17 9.50 7.23L9.50 7.23L9.50 7.23Q9.99 6.24 10.47 5.65L10.47 5.65L10.47 5.65Q10.60 5.50 10.75 5.36L10.75 5.36L10.75 5.36Q10.96 6.30 10.56 8.51L10.56 8.51L10.56 8.51Q10.01 11.60 9.70 12.71L9.70 12.71L9.70 12.71Q9.63 12.96 10.29 12.84L10.29 12.84L10.29 12.84Q10.59 12.78 10.84 12.67L10.84 12.67L10.84 12.67Q11.12 12.54 11.14 12.45L11.14 12.45L11.14 12.45Q11.45 11.34 12.02 8.18L12.02 8.18L12.02 8.18Q12.22 7.02 12.27 6.25L12.27 6.25L12.27 6.25Q12.33 5.17 12.07 4.50L12.07 4.50ZM13.67 9.28L13.67 9.28Q13.42 8.31 13.78 6.81L13.78 6.81L13.78 6.81Q14.15 5.33 14.83 4.59L14.83 4.59L14.83 4.59Q14.89 4.53 14.96 4.46L14.96 4.46L14.96 4.46Q14.98 4.47 15.00 4.49L15.00 4.49L15.00 4.49Q15.35 4.80 15.44 5.69L15.44 5.69L15.44 5.69Q15.44 5.79 15.68 5.80L15.68 5.80L15.68 5.80Q15.53 6.60 15.29 7.98L15.29 7.98L15.29 7.98Q15.00 9.58 14.90 10.17L14.90 10.17L14.90 10.17Q14.68 10.26 14.57 10.40L14.57 10.40L14.57 10.40Q14.57 10.40 14.54 10.44L14.54 10.44L14.54 10.44Q14.45 10.40 14.36 10.34L14.36 10.34L14.36 10.34Q13.86 10.02 13.67 9.28L13.67 9.28ZM17.68 0.60L17.68 0.60Q17.37 0.66 17.12 0.77L17.12 0.77L17.12 0.77Q16.85 0.90 16.82 1.00L16.82 1.00L16.82 1.00Q16.43 2.28 16.09 3.83L16.09 3.83L16.09 3.83Q15.83 3.74 15.49 3.77L15.49 3.77L15.49 3.77Q14.77 3.85 14.13 4.22L14.13 4.22L14.13 4.22Q13.00 4.86 12.43 6.75L12.43 6.75L12.43 6.75Q11.91 8.51 12.22 9.71L12.22 9.71L12.22 9.71Q12.44 10.55 13.15 10.92L13.15 10.92L13.15 10.92Q13.95 11.33 15.09 10.84L15.09 10.84L15.09 10.84Q15.21 10.83 15.38 10.81L15.38 10.81L15.38 10.81Q15.68 10.75 15.93 10.64L15.93 10.64L15.93 10.64Q16.21 10.50 16.24 10.41L16.24 10.41L16.24 10.41Q17.76 2.39 18.26 0.74L18.26 0.74L18.26 0.74Q18.33 0.49 17.68 0.60L17.68 0.60ZM18.41 4.42L18.41 4.42Q18.14 5.93 17.68 7.64L17.68 7.64L17.68 7.64Q17.49 8.35 17.23 9.22L17.23 9.22L17.23 9.22Q16.88 10.42 16.94 10.72L16.94 10.72L16.94 10.72Q16.99 10.95 17.71 10.77L17.71 10.77L17.71 10.77Q18.44 10.58 18.40 10.33L18.40 10.33L18.40 10.33Q18.34 10.06 18.67 8.96L18.67 8.96L18.67 8.96Q18.90 8.18 19.12 7.38L19.12 7.38L19.12 7.38Q19.56 5.70 19.84 4.16L19.84 4.16L19.84 4.16Q19.89 3.92 19.26 4.03L19.26 4.03L19.26 4.03Q18.96 4.09 18.70 4.20L18.70 4.20L18.70 4.20Q18.42 4.33 18.41 4.42L18.41 4.42ZM18.24 2.43L18.24 2.43Q18.53 2.63 18.74 2.83L18.74 2.83L18.74 2.83Q18.81 2.90 19.11 2.87L19.11 2.87L19.11 2.87Q19.39 2.84 19.67 2.74L19.67 2.74L19.67 2.74Q20.30 2.52 20.11 2.34L20.11 2.34L20.11 2.34Q19.91 2.13 19.61 1.93L19.61 1.93L19.61 1.93Q19.51 1.87 19.24 1.89L19.24 1.89L19.24 1.89Q18.96 1.92 18.68 2.02L18.68 2.02L18.68 2.02Q18.50 2.08 18.35 2.18L18.35 2.18L18.35 2.18Q18.10 2.34 18.24 2.43L18.24 2.43ZM24.92 4.50L24.92 4.50Q24.86 4.33 24.33 4.44L24.33 4.44L24.33 4.44Q23.13 4.66 22.31 5.45L22.31 5.45L22.31 5.45Q22.12 5.63 21.95 5.84L21.95 5.84L21.95 5.84Q22.18 4.81 22.30 4.05L22.30 4.05L22.30 4.05Q22.31 3.92 21.93 3.96L21.93 3.96L21.93 3.96Q21.68 3.98 21.51 4.03L21.51 4.03L21.51 4.03Q20.87 4.20 20.84 4.44L20.84 4.44L20.84 4.44Q20.71 5.31 20.15 7.64L20.15 7.64L20.15 7.64Q19.66 9.64 19.57 10.86L19.57 10.86L19.57 10.86Q19.56 11.04 20.25 10.89L20.25 10.89L20.25 10.89Q20.95 10.75 21.02 10.53L21.02 10.53L21.02 10.53Q21.88 8.17 22.35 7.23L22.35 7.23L22.35 7.23Q22.85 6.24 23.33 5.65L23.33 5.65L23.33 5.65Q23.45 5.50 23.60 5.36L23.60 5.36L23.60 5.36Q23.82 6.30 23.42 8.51L23.42 8.51L23.42 8.51Q22.87 11.60 22.56 12.71L22.56 12.71L22.56 12.71Q22.49 12.96 23.15 12.84L23.15 12.84L23.15 12.84Q23.45 12.78 23.70 12.67L23.70 12.67L23.70 12.67Q23.98 12.54 24.00 12.45L24.00 12.45L24.00 12.45Q24.31 11.34 24.88 8.18L24.88 8.18L24.88 8.18Q25.08 7.02 25.13 6.25L25.13 6.25L25.13 6.25Q25.19 5.17 24.92 4.50L24.92 4.50ZM27.79 9.74L27.79 9.74Q27.52 10.08 27.25 10.29L27.25 10.29L27.25 10.29Q27.23 10.30 27.19 10.34L27.19 10.34L27.19 10.34Q26.74 10.23 26.50 9.60L26.50 9.60L26.50 9.60Q26.36 9.23 26.37 8.68L26.37 8.68L26.37 8.68Q26.33 7.76 26.90 6.65L26.90 6.65L26.90 6.65Q27.43 5.47 28.34 4.66L28.34 4.66L28.34 4.66Q28.34 4.66 28.34 4.66L28.34 4.66L28.34 4.66Q28.38 4.68 28.41 4.70L28.41 4.70L28.41 4.70Q28.53 4.81 28.64 5.07L28.64 5.07L28.64 5.07Q28.70 5.19 28.96 5.17L28.96 5.17L28.96 5.17Q28.73 6.15 28.35 8.88L28.35 8.88L28.35 8.88Q28.10 9.37 27.79 9.74L27.79 9.74ZM30.08 3.79L30.08 3.79Q29.70 3.88 29.49 3.99L29.49 3.99L29.49 3.99Q29.16 3.88 28.58 4.03L28.58 4.03L28.58 4.03Q27.46 4.29 26.58 5.30L26.58 5.30L26.58 5.30Q24.99 7.02 24.94 9.11L24.94 9.11L24.94 9.11Q24.90 10.06 25.39 10.58L25.39 10.58L25.39 10.58Q25.87 11.08 26.67 10.99L26.67 10.99L26.67 10.99Q27.32 10.91 28.05 10.47L28.05 10.47L28.05 10.47Q27.89 11.25 27.71 11.90L27.71 11.90L27.71 11.90Q27.50 12.67 27.21 13.19L27.21 13.19L27.21 13.19Q27.06 13.46 26.86 13.69L26.86 13.69L26.86 13.69Q26.83 13.71 26.77 13.78L26.77 13.78L26.77 13.78Q26.68 13.75 26.58 13.71L26.58 13.71L26.58 13.71Q26.20 13.54 26.07 13.19L26.07 13.19L26.07 13.19Q25.94 12.87 26.25 11.76L26.25 11.76L26.25 11.76Q26.33 11.50 25.66 11.66L25.66 11.66L25.66 11.66Q24.90 11.83 24.83 12.09L24.83 12.09L24.83 12.09Q24.51 13.25 24.64 13.66L24.64 13.66L24.64 13.66Q24.76 14.05 25.21 14.27L25.21 14.27L25.21 14.27Q25.59 14.44 26.05 14.44L26.05 14.44L26.05 14.44Q27.16 14.43 28.04 13.62L28.04 13.62L28.04 13.62Q28.50 13.21 28.85 12.41L28.85 12.41L28.85 12.41Q29.09 11.87 29.42 10.43L29.42 10.43L29.42 10.43Q29.59 9.61 29.78 8.08L29.78 8.08L29.78 8.08Q30.06 6.57 30.15 6.00L30.15 6.00L30.15 6.00Q30.58 4.68 30.67 3.90L30.67 3.90L30.67 3.90L30.67 3.90Q30.67 3.90 30.67 3.90L30.67 3.90L30.67 3.90Q30.67 3.90 30.67 3.90L30.67 3.90L30.67 3.90Q30.67 3.88 30.67 3.86L30.67 3.86L30.67 3.86Q30.68 3.84 30.68 3.83L30.68 3.83L30.68 3.83Q30.69 3.73 30.41 3.75L30.41 3.75L30.41 3.75Q30.23 3.76 30.08 3.79L30.08 3.79Z"></path></g><!----><g data-v-423bf9ae="" id="1645d998-ce50-487b-83bb-f3f448e15059" transform="matrix(1.2937930184303166,0,0,1.2937930184303166,-15.866976438186185,-18.219444540294056)" stroke="none" fill="white"><path d="M61.8 56.1l-17.5-6.5-6.6-2.5-7.5 20.1-15.8 10.3c-.2.2-.5.3-.6.5-1.3 1.4-1.3 3.6.2 5 1.2 1.1 3 1.2 4.3.4L35 72.6c.7-.4 1.3-1.1 1.5-1.8L42 56.2l11.8 4.4L43 69.2c-.3.2-.5.5-.8.7-1.2 1.6-.9 3.8.7 4.9 1.3 1 3.1.9 4.3-.1L62.7 62c1-.8 1.5-2.2 1.2-3.5-.1-1.1-1-2-2.1-2.4zM86.5 32.7c-1-1.1-2.6-1.1-3.7-.2l-10.9 9.9-6.7-7.6-2.1-2.3-.9-1.1-6.6-7.4H39.9c-.7 0-1.4.3-1.9.8L25.3 36.5c-1.1 1-1.1 2.6-.2 3.7 1 1.1 2.6 1.1 3.7.2l12.1-11h10.3l-12 14.1 14.2 5.3 8.4-9.9 7.9 9.1c.9 1.1 2.6 1.2 3.7.3l.2-.2 12.7-11.6c1.1-1 1.2-2.7.2-3.8z"></path><ellipse transform="rotate(113.391 66.516 22.705)" cx="66.5" cy="22.7" rx="7" ry="4.8"></ellipse></g><!----></svg>